<svg width="32" height="32" viewBox="0 0 32 32" fill="none" xmlns="http://www.w3.org/2000/svg">
<path d="M16.0004 6.44427C17.6117 6.44427 18.9179 5.16082 18.9179 3.5776C18.9179 1.99439 17.6117 0.710938 16.0004 0.710938C14.3892 0.710938 13.083 1.99439 13.083 3.5776C13.083 5.16082 14.3892 6.44427 16.0004 6.44427Z" fill="black"/>
<path d="M3.59302 12.2713C2.19761 11.4796 1.7195 9.72642 2.52515 8.35532C3.33079 6.98421 5.1151 6.51444 6.51051 7.30604C7.90593 8.09765 8.38403 9.85088 7.57839 11.222C6.77274 12.5931 4.98844 13.0629 3.59302 12.2713Z" fill="black"/>
<path d="M25.4904 24.6935C24.095 23.9019 23.6169 22.1486 24.4225 20.7775C25.2282 19.4064 27.0125 18.9367 28.4079 19.7283C29.8033 20.5199 30.2814 22.2731 29.4758 23.6442C28.6701 25.0153 26.8858 25.4851 25.4904 24.6935Z" fill="black"/>
<path d="M24.4225 11.222C25.2282 12.5931 27.0125 13.0629 28.4079 12.2713C29.8033 11.4796 30.2814 9.72642 29.4758 8.35532C28.6701 6.98421 26.8858 6.51444 25.4904 7.30604C24.095 8.09765 23.6169 9.85088 24.4225 11.222Z" fill="black"/>
<path d="M6.51051 24.6935C5.1151 25.4851 3.33079 25.0153 2.52515 23.6442C1.7195 22.2731 2.19761 20.5199 3.59302 19.7283C4.98844 18.9367 6.77274 19.4064 7.57839 20.7775C8.38403 22.1486 7.90593 23.9019 6.51051 24.6935Z" fill="black"/>
<path d="M18.9179 28.422C18.9179 30.0053 17.6117 31.2887 16.0004 31.2887C14.3892 31.2887 13.083 30.0053 13.083 28.422C13.083 26.8388 14.3892 25.5554 16.0004 25.5554C17.6117 25.5554 18.9179 26.8388 18.9179 28.422Z" fill="black"/>
<path d="M16.0004 17.4332C16.8061 17.4332 17.4592 16.7914 17.4592 15.9998C17.4592 15.2082 16.8061 14.5665 16.0004 14.5665C15.1948 14.5665 14.5417 15.2082 14.5417 15.9998C14.5417 16.7914 15.1948 17.4332 16.0004 17.4332Z" fill="black"/>
<path d="M20.0812 20.5217C19.1509 19.9939 18.8322 18.8251 19.3693 17.911C19.9064 16.997 21.0959 16.6838 22.0262 17.2115C22.9565 17.7393 23.2752 18.9081 22.7381 19.8222C22.201 20.7362 21.0115 21.0494 20.0812 20.5217Z" fill="black"/>
<path d="M9.26279 12.1777C8.72569 13.0918 9.04443 14.2606 9.9747 14.7883C10.905 15.3161 12.0945 15.0029 12.6316 14.0888C13.1687 13.1748 12.85 12.0059 11.9197 11.4782C10.9894 10.9505 9.79988 11.2636 9.26279 12.1777Z" fill="black"/>
<path d="M22.0262 14.7883C21.0959 15.3161 19.9064 15.0029 19.3693 14.0888C18.8322 13.1748 19.1509 12.0059 20.0812 11.4782C21.0115 10.9505 22.201 11.2636 22.7381 12.1777C23.2752 13.0918 22.9565 14.2606 22.0262 14.7883Z" fill="black"/>
<path d="M9.26279 19.8222C9.79988 20.7362 10.9894 21.0494 11.9197 20.5217C12.85 19.9939 13.1687 18.8251 12.6316 17.9111C12.0945 16.997 10.905 16.6838 9.9747 17.2115C9.04443 17.7393 8.72569 18.9081 9.26279 19.8222Z" fill="black"/>
<path d="M17.9454 10.2665C17.9454 11.322 17.0746 12.1776 16.0004 12.1776C14.9263 12.1776 14.0555 11.322 14.0555 10.2665C14.0555 9.21102 14.9263 8.35538 16.0004 8.35538C17.0746 8.35538 17.9454 9.21102 17.9454 10.2665Z" fill="black"/>
<path d="M16.0004 23.6443C17.0746 23.6443 17.9454 22.7886 17.9454 21.7332C17.9454 20.6777 17.0746 19.822 16.0004 19.822C14.9263 19.822 14.0555 20.6777 14.0555 21.7332C14.0555 22.7886 14.9263 23.6443 16.0004 23.6443Z" fill="black"/>
</svg>
